<svg width="39" height="33" viewBox="0 0 39 33" fill="none" xmlns="http://www.w3.org/2000/svg">
<circle cx="7.5" cy="1.5" r="1.5" fill="#D9D9D9"/>
<circle cx="1.5" cy="1.5" r="1.5" fill="#D9D9D9"/>
<circle cx="13.5" cy="1.5" r="1.5" fill="#D9D9D9"/>
<circle cx="19.5" cy="1.5" r="1.5" fill="#D9D9D9"/>
<circle cx="25.5" cy="1.5" r="1.5" fill="#D9D9D9"/>
<circle cx="31.5" cy="1.5" r="1.5" fill="#D9D9D9"/>
<circle cx="37.5" cy="1.5" r="1.5" fill="#D9D9D9"/>
<circle cx="7.5" cy="7.5" r="1.5" fill="#D9D9D9"/>
<circle cx="1.5" cy="7.5" r="1.5" fill="#D9D9D9"/>
<circle cx="13.5" cy="7.5" r="1.5" fill="#D9D9D9"/>
<circle cx="19.5" cy="7.5" r="1.5" fill="#D9D9D9"/>
<circle cx="25.5" cy="7.5" r="1.5" fill="#D9D9D9"/>
<circle cx="31.5" cy="7.5" r="1.5" fill="#D9D9D9"/>
<circle cx="37.5" cy="7.5" r="1.5" fill="#D9D9D9"/>
<circle cx="7.5" cy="13.5" r="1.5" fill="#D9D9D9"/>
<circle cx="1.5" cy="13.5" r="1.5" fill="#D9D9D9"/>
<circle cx="13.5" cy="13.5" r="1.5" fill="#D9D9D9"/>
<circle cx="19.5" cy="13.5" r="1.5" fill="#D9D9D9"/>
<circle cx="25.5" cy="13.5" r="1.5" fill="#D9D9D9"/>
<circle cx="31.5" cy="13.5" r="1.5" fill="#D9D9D9"/>
<circle cx="37.5" cy="13.5" r="1.5" fill="#D9D9D9"/>
<circle cx="7.5" cy="19.5" r="1.5" fill="#D9D9D9"/>
<circle cx="1.5" cy="19.5" r="1.5" fill="#D9D9D9"/>
<circle cx="13.5" cy="19.5" r="1.5" fill="#D9D9D9"/>
<circle cx="19.5" cy="19.5" r="1.5" fill="#D9D9D9"/>
<circle cx="25.5" cy="19.5" r="1.5" fill="#D9D9D9"/>
<circle cx="31.5" cy="19.5" r="1.5" fill="#D9D9D9"/>
<circle cx="37.5" cy="19.5" r="1.5" fill="#D9D9D9"/>
<circle cx="7.5" cy="25.5" r="1.5" fill="#D9D9D9"/>
<circle cx="1.5" cy="25.5" r="1.5" fill="#D9D9D9"/>
<circle cx="13.5" cy="25.5" r="1.5" fill="#D9D9D9"/>
<circle cx="19.5" cy="25.5" r="1.5" fill="#D9D9D9"/>
<circle cx="25.5" cy="25.5" r="1.5" fill="#D9D9D9"/>
<circle cx="31.5" cy="25.5" r="1.5" fill="#D9D9D9"/>
<circle cx="37.5" cy="25.5" r="1.5" fill="#D9D9D9"/>
<circle cx="7.5" cy="31.5" r="1.5" fill="#D9D9D9"/>
<circle cx="1.5" cy="31.5" r="1.5" fill="#D9D9D9"/>
<circle cx="13.5" cy="31.5" r="1.5" fill="#D9D9D9"/>
<circle cx="19.5" cy="31.5" r="1.5" fill="#D9D9D9"/>
<circle cx="25.5" cy="31.5" r="1.5" fill="#D9D9D9"/>
<circle cx="31.5" cy="31.5" r="1.5" fill="#D9D9D9"/>
<circle cx="37.5" cy="31.5" r="1.5" fill="#D9D9D9"/>
</svg>
